<svg width="160" height="126" viewBox="0 0 160 126" fill="none" xmlns="http://www.w3.org/2000/svg">
<g filter="url(#filter0_f_3_70)">
<path d="M37.55 102.375C35.1185 102.378 32.6972 102.127 30.35 101.627C23.3045 100.045 17.3272 96.3508 13.7003 91.3378C10.0735 86.3249 9.08609 80.3921 10.95 74.8125L22.6 40.005C23.5073 37.188 25.1202 34.5422 27.3441 32.2229C29.5679 29.9036 32.3578 27.9577 35.55 26.4994C38.6581 25.0817 42.0926 24.1637 45.6544 23.7988C49.2162 23.4338 52.8346 23.629 56.3 24.3731C59.9837 25.1787 63.4147 26.5781 66.3755 28.4828C69.3364 30.3874 71.7624 32.7557 73.5 35.4375H86.5C88.23 32.7514 90.6536 30.3796 93.6156 28.4743C96.5775 26.5689 100.012 25.172 103.7 24.3731C107.165 23.629 110.784 23.4338 114.346 23.7988C117.907 24.1637 121.342 25.0817 124.45 26.4994C127.627 27.954 130.406 29.8892 132.629 32.1936C134.851 34.4981 136.473 37.1261 137.4 39.9262L149.05 74.8125C150.942 80.4084 149.962 86.3658 146.323 91.3977C142.684 96.4297 136.677 100.132 129.6 101.706C126.135 102.45 122.516 102.645 118.954 102.28C115.393 101.915 111.958 100.997 108.85 99.5793C105.668 98.1299 102.884 96.1962 100.661 93.891C98.4377 91.5858 96.8193 88.9552 95.9 86.1525L95 82.6875H65L63.85 86.0737C62.9307 88.8765 61.3122 91.5071 59.0889 93.8123C56.8656 96.1175 54.0818 98.0512 50.9 99.5006C46.8374 101.346 42.2396 102.336 37.55 102.375ZM49.15 31.5C46.1327 31.5081 43.1696 32.1321 40.55 33.3112C36.4443 35.2083 33.4599 38.3088 32.25 41.9344L20.6 76.7418C19.3809 80.3279 19.9969 84.1474 22.3156 87.3797C24.6342 90.6119 28.4705 92.9988 33 94.0275C35.1875 94.4974 37.4716 94.621 39.7202 94.3912C41.9688 94.1614 44.1372 93.5828 46.1 92.6887C48.1435 91.7596 49.9305 90.5181 51.3559 89.0373C52.7812 87.5564 53.8162 85.866 54.4 84.0656L57.5 74.8125H102.5L105.55 84.0656C106.144 85.8626 107.183 87.5495 108.607 89.0293C110.032 90.5091 111.813 91.7527 113.85 92.6887C115.822 93.5819 117.999 94.1599 120.256 94.3896C122.512 94.6193 124.804 94.4962 127 94.0275C131.535 93.0084 135.376 90.6211 137.688 87.3845C140.001 84.1478 140.598 80.3232 139.35 76.7418L127.7 41.9344C127.12 40.1381 126.091 38.4506 124.675 36.9702C123.258 35.4898 121.482 34.246 119.45 33.3112C117.478 32.4181 115.301 31.8401 113.044 31.6104C110.788 31.3806 108.496 31.5037 106.3 31.9725C103.584 32.5821 101.092 33.6932 99.0314 35.2135C96.9704 36.7338 95.3998 38.6194 94.45 40.7137L93.25 43.3125H66.75L65.55 40.7137C64.5917 38.6166 63.0123 36.7297 60.9427 35.2095C58.8731 33.6893 56.3731 32.5796 53.65 31.9725C52.1826 31.6609 50.6697 31.5021 49.15 31.5Z" fill="white" fill-opacity="0.03"/>
<path d="M50 63C48.0222 63 46.0888 62.5381 44.4443 61.6728C42.7998 60.8075 41.5181 59.5776 40.7612 58.1386C40.0043 56.6997 39.8063 55.1163 40.1922 53.5887C40.578 52.0611 41.5304 50.6579 42.9289 49.5565C44.3275 48.4552 46.1093 47.7052 48.0491 47.4013C49.9889 47.0975 51.9996 47.2534 53.8268 47.8495C55.6541 48.4455 57.2159 49.4549 58.3147 50.7499C59.4135 52.0449 60 53.5675 60 55.125C60 57.2136 58.9464 59.2166 57.0711 60.6935C55.1957 62.1703 52.6522 63 50 63Z" fill="white" fill-opacity="0.03"/>
<path d="M110 51.1875C112.761 51.1875 115 49.4246 115 47.25C115 45.0754 112.761 43.3125 110 43.3125C107.239 43.3125 105 45.0754 105 47.25C105 49.4246 107.239 51.1875 110 51.1875Z" fill="white" fill-opacity="0.03"/>
<path d="M110 66.9375C112.761 66.9375 115 65.1746 115 63C115 60.8254 112.761 59.0625 110 59.0625C107.239 59.0625 105 60.8254 105 63C105 65.1746 107.239 66.9375 110 66.9375Z" fill="white" fill-opacity="0.03"/>
<path d="M100 59.0625C102.761 59.0625 105 57.2996 105 55.125C105 52.9504 102.761 51.1875 100 51.1875C97.2386 51.1875 95 52.9504 95 55.125C95 57.2996 97.2386 59.0625 100 59.0625Z" fill="white" fill-opacity="0.03"/>
<path d="M120 59.0625C122.761 59.0625 125 57.2996 125 55.125C125 52.9504 122.761 51.1875 120 51.1875C117.239 51.1875 115 52.9504 115 55.125C115 57.2996 117.239 59.0625 120 59.0625Z" fill="white" fill-opacity="0.03"/>
</g>
<defs>
<filter id="filter0_f_3_70" x="-4" y="-4" width="168" height="134" filterUnits="userSpaceOnUse" color-interpolation-filters="sRGB">
<feFlood flood-opacity="0" result="BackgroundImageFix"/>
<feBlend mode="normal" in="SourceGraphic" in2="BackgroundImageFix" result="shape"/>
<feGaussianBlur stdDeviation="2" result="effect1_foregroundBlur_3_70"/>
</filter>
</defs>
</svg>
